{"title":"Dracula Untold(2014)MPEG-4[DaScubaDude]","uid":14775364,"size":1012641026,"categoryP":"video","categoryS":"movies","magnet":"?xt=urn:btih:9d6dca81f6547cd76c97cdaaa45213475a176ead&amp;dn=Dracula+Untold%282014%29MPEG-4%5BDaScubaDude%5D&amp;tr=udp%3A%2F%2Ftracker.leechers-paradise.org%3A6969&amp;tr=udp%3A%2F%2Fzer0day.ch%3A1337&amp;tr=udp%3A%2F%2Fopen.demonii.com%3A1337&amp;tr=udp%3A%2F%2Ftracker.coppersurfer.tk%3A6969&amp;tr=udp%3A%2F%2Fexodus.desync.com%3A6969","seeders":1,"leechers":0,"uploader":"dascuba","files":1,"time":1464948914,"description":"Dracula Untold (2014)\r\nPG-13 | 1h 32min | Action, Drama, Fantasy | 10 October 2014 (USA)\r\nAs his kingdom is being threatened by the Turks, young prince Vlad Tepes must become a monster feared by his own people in order to obtain the power needed to protect his own family, and the families of his kingdom.\r\nDirector: Gary Shore\r\nWriters: Matt Sazama (screenplay), Burk Sharpless (screenplay) |\r\nStars: Luke Evans, Dominic Cooper, Sarah Gadon |\r\n\r\nGeneral\r\nComplete name                            : DraculaUntoldDRACULA_UNTOLD_Title10.mp4\r\nFormat                                   : MPEG-4\r\nFormat profile                           : Base Media\r\nCodec ID                                 : isom (isom/iso2/avc1/mp41)\r\nFile size                                : 966 MiB\r\nDuration                                 : 1h 32mn\r\nOverall bit rate                         : 1 465 Kbps\r\nMovie name                               : DRACULA_UNTOLD\r\nGenre                                    : Adventure\r\nWriting application                      : Lavf54.6.100\r\n\r\nVideo\r\nID                                       : 1\r\nFormat                                   : AVC\r\nFormat/Info                              : Advanced Video Codec\r\nFormat profile                           :   \r\nFormat settings, CABAC                   : No\r\nFormat settings, ReFrames                : 6 frames\r\nCodec ID                                 : avc1\r\nCodec ID/Info                            : Advanced Video Coding\r\nDuration                                 : 1h 32mn\r\nBit rate                                 : 1 206 Kbps\r\nWidth                                    : 720 pixels\r\nHeight                                   : 404 pixels\r\nDisplay aspect ratio                     : 16:9\r\nFrame rate mode                          : Constant\r\nFrame rate                               : 29.970 (30000/1001) fps\r\nColor space                              : YUV\r\nChroma subsampling                       : 4:2:0\r\nBit depth                                : 8 bits\r\nScan type                                : Progressive\r\nBits/(Pixel*Frame)                       : 0.138\r\nStream size                              : 795 MiB (82%)\r\n\r\nAudio\r\nID                                       : 2\r\nFormat                                   : AAC\r\nFormat/Info                              : Advanced Audio Codec\r\nFormat profile                           : LC\r\nCodec ID                                 : 40\r\nDuration                                 : 1h 32mn\r\nBit rate mode                            : Constant\r\nBit rate                                 : 252 Kbps\r\nChannel(s)                               : 2 channels\r\nChannel(s)_Original                      : 6 channels\r\nChannel positions                        : Front: L C R, Side: L R, LFE\r\nSampling rate                            : 44.1 KHz\r\nFrame rate                               : 43.066 fps (1024 spf)\r\nCompression mode                         : Lossy\r\nStream size                              : 166 MiB (17%)\r\nDefault                                  : Yes\r\nAlternate group                          : 1","torrent":{"xt":"urn:btih:9d6dca81f6547cd76c97cdaaa45213475a176ead","amp;dn":"Dracula+Untold%282014%29MPEG-4%5BDaScubaDude%5D","amp;tr":["udp%3A%2F%2Ftracker.leechers-paradise.org%3A6969","udp%3A%2F%2Fzer0day.ch%3A1337","udp%3A%2F%2Fopen.demonii.com%3A1337","udp%3A%2F%2Ftracker.coppersurfer.tk%3A6969","udp%3A%2F%2Fexodus.desync.com%3A6969"],"infoHash":"9d6dca81f6547cd76c97cdaaa45213475a176ead","infoHashBuffer":{"type":"Buffer","data":[157,109,202,129,246,84,124,215,108,151,205,170,164,82,19,71,90,23,110,173]},"announce":[],"urlList":[]}}